<svg version="1.1" id="Layer_1" xmlns="http://www.w3.org/2000/svg" xmlns:xlink="http://www.w3.org/1999/xlink" x="0px" y="0px"
	 width="100%" viewBox="0 0 448 832" enable-background="new 0 0 448 832" xml:space="preserve">
<path fill="#070C17" opacity="1.000000" stroke="none" 
	d="
M449.000000,119.000000 
	C449.000000,356.926300 449.000000,594.852600 449.000000,832.889465 
	C299.786652,832.889465 150.573196,832.889465 1.000000,832.889465 
	C1.000000,759.976318 1.000000,686.952026 1.366324,613.409912 
	C4.055696,611.990723 6.453808,611.244812 8.690475,610.164551 
	C41.469124,594.334473 68.637512,571.400330 92.039719,543.822144 
	C106.266487,527.056763 120.284935,509.978973 138.852905,497.837860 
	C152.192459,489.115479 166.680679,482.165802 180.213837,473.716370 
	C186.423737,469.839142 191.570526,464.259155 197.485321,459.257324 
	C207.414764,448.960785 214.963409,437.398468 220.814713,424.795959 
	C227.193970,411.056396 232.942062,397.024384 239.282745,383.266174 
	C244.273972,372.436096 251.789612,363.832489 262.240997,357.610657 
	C265.553650,355.638641 267.984192,351.699646 270.017090,348.195862 
	C272.167328,344.489868 273.265808,340.187622 274.994659,336.220306 
	C278.709106,327.696503 282.470245,319.191711 286.332977,310.734283 
	C289.362244,304.101746 293.352081,297.799805 295.541687,290.914246 
	C300.180542,276.326508 303.962830,261.464661 308.021729,246.694702 
	C312.699097,229.674103 319.467102,214.112640 335.199982,204.026611 
	C338.931152,201.634628 342.241852,200.037460 346.732697,200.969879 
	C354.620331,202.607620 358.173187,200.986145 362.396240,193.895264 
	C366.059540,187.744308 369.034485,181.142975 373.090515,175.277893 
	C377.012695,169.606308 381.066559,163.337646 386.601624,159.626968 
	C395.440857,153.701126 402.142517,146.290771 408.304016,137.906815 
	C410.554230,134.844955 414.110443,132.642380 417.327118,130.418457 
	C420.830322,127.996376 424.889740,126.337471 428.234375,123.738136 
	C432.093689,120.738823 436.054108,118.805161 441.014313,119.049141 
	C443.668976,119.179718 446.337646,119.025627 449.000000,119.000000 
z"/>
<path fill="#506381" opacity="1.000000" stroke="none" 
	d="
M449.000000,118.531342 
	C446.337646,119.025627 443.668976,119.179718 441.014313,119.049141 
	C436.054108,118.805161 432.093689,120.738823 428.234375,123.738136 
	C424.889740,126.337471 420.830322,127.996376 417.327118,130.418457 
	C414.110443,132.642380 410.554230,134.844955 408.304016,137.906815 
	C402.142517,146.290771 395.440857,153.701126 386.601624,159.626968 
	C381.066559,163.337646 377.012695,169.606308 373.090515,175.277893 
	C369.034485,181.142975 366.059540,187.744308 362.396240,193.895264 
	C358.173187,200.986145 354.620331,202.607620 346.732697,200.969879 
	C342.241852,200.037460 338.931152,201.634628 335.199982,204.026611 
	C319.467102,214.112640 312.699097,229.674103 308.021729,246.694702 
	C303.962830,261.464661 300.180542,276.326508 295.541687,290.914246 
	C293.352081,297.799805 289.362244,304.101746 286.332977,310.734283 
	C282.470245,319.191711 278.709106,327.696503 274.994659,336.220306 
	C273.265808,340.187622 272.167328,344.489868 270.017090,348.195862 
	C267.984192,351.699646 265.553650,355.638641 262.240997,357.610657 
	C251.789612,363.832489 244.273972,372.436096 239.282745,383.266174 
	C232.942062,397.024384 227.193970,411.056396 220.814713,424.795959 
	C214.963409,437.398468 207.414764,448.960785 197.117798,459.101074 
	C185.000168,455.680298 173.488312,452.370789 162.084976,448.722137 
	C150.228516,444.928467 138.238037,441.388611 126.745705,436.667755 
	C114.906380,431.804413 103.552086,425.741516 92.065559,420.042236 
	C71.199051,409.688934 51.507584,411.377228 33.088696,425.699768 
	C26.916351,430.499390 21.176287,435.856781 14.980610,440.623840 
	C10.542848,444.038330 5.675610,446.894623 0.999998,450.000000 
	C1.000000,300.397827 1.000000,150.795685 1.000000,1.096760 
	C150.333298,1.096760 299.666656,1.096760 449.000000,1.096760 
	C449.000000,40.096344 449.000000,79.079514 449.000000,118.531342 
M175.820267,120.415237 
	C165.269958,142.831528 169.843216,167.173157 187.565948,182.932938 
	C205.262527,198.669479 230.085724,201.057816 249.633881,188.904755 
	C269.071899,176.820190 278.710144,154.162460 273.831116,132.021545 
	C269.162811,110.837166 250.243378,93.451576 228.295486,91.620682 
	C205.141190,89.689133 187.712158,99.572128 175.820267,120.415237 
z"/>
<path fill="#1F2E46" opacity="1.000000" stroke="none" 
	d="
M0.999998,450.468658 
	C5.675610,446.894623 10.542848,444.038330 14.980610,440.623840 
	C21.176287,435.856781 26.916351,430.499390 33.088696,425.699768 
	C51.507584,411.377228 71.199051,409.688934 92.065559,420.042236 
	C103.552086,425.741516 114.906380,431.804413 126.745705,436.667755 
	C138.238037,441.388611 150.228516,444.928467 162.084976,448.722137 
	C173.488312,452.370789 185.000168,455.680298 196.831879,459.295074 
	C191.570526,464.259155 186.423737,469.839142 180.213837,473.716370 
	C166.680679,482.165802 152.192459,489.115479 138.852905,497.837860 
	C120.284935,509.978973 106.266487,527.056763 92.039719,543.822144 
	C68.637512,571.400330 41.469124,594.334473 8.690475,610.164551 
	C6.453808,611.244812 4.055696,611.990723 1.366324,612.946045 
	C1.000000,558.979126 1.000000,504.958221 0.999998,450.468658 
z"/>
<path fill="#F5F5F1" opacity="1.000000" stroke="none" 
	d="
M175.991943,120.084351 
	C187.712158,99.572128 205.141190,89.689133 228.295486,91.620682 
	C250.243378,93.451576 269.162811,110.837166 273.831116,132.021545 
	C278.710144,154.162460 269.071899,176.820190 249.633881,188.904755 
	C230.085724,201.057816 205.262527,198.669479 187.565948,182.932938 
	C169.843216,167.173157 165.269958,142.831528 175.991943,120.084351 
z"/>
</svg>